<svg version="1.1" id="Layer_1" xmlns="http://www.w3.org/2000/svg" xmlns:xlink="http://www.w3.org/1999/xlink" x="0px" y="0px"
	 width="100%" viewBox="0 0 500 500" enable-background="new 0 0 500 500" xml:space="preserve">
<path fill="#000000" opacity="1.000000" stroke="none" 
	d="
M333.000000,501.000000 
	C223.333359,501.000000 114.166695,500.979401 5.000179,501.095367 
	C1.576362,501.098999 0.903033,500.423889 0.905298,497.000031 
	C1.013776,333.000122 1.013758,169.000153 0.905339,5.000260 
	C0.903076,1.576988 1.575754,0.903019 4.999863,0.905285 
	C168.999756,1.013775 332.999725,1.013760 496.999634,0.905354 
	C500.422638,0.903092 501.096985,1.575406 501.094727,4.999744 
	C500.986206,168.999634 500.986237,332.999603 501.094604,496.999512 
	C501.096893,500.422272 500.426147,501.105957 497.000183,501.097290 
	C442.500366,500.959045 388.000153,501.000000 333.000000,501.000000 
z"/>
<path fill="#522711" opacity="1.000000" stroke="none" 
	d="
M270.486237,179.628387 
	C271.627808,181.585693 273.199677,181.777740 274.884918,182.180923 
	C293.918060,186.734726 308.971710,197.120163 319.878754,213.391052 
	C329.873322,228.300705 333.086578,245.134094 330.669830,262.405670 
	C328.142883,280.465057 319.062866,295.762756 305.120880,307.786163 
	C302.016388,310.463440 298.383423,312.665375 294.697449,314.486420 
	C291.853394,315.891602 291.345398,317.241608 292.420593,320.146637 
	C295.243256,327.773163 296.933167,335.660461 296.994049,343.859100 
	C297.115814,360.261719 291.416290,374.645508 281.796997,387.624817 
	C266.495392,408.271301 245.401840,417.235321 220.326996,415.741058 
	C196.019714,414.292542 176.905014,402.741150 164.001801,381.788849 
	C156.578461,369.734833 152.049438,356.593018 153.099945,342.321686 
	C154.271439,326.406494 158.956161,311.670105 169.360580,298.924713 
	C175.368149,291.565491 182.536926,286.010681 190.565475,281.312866 
	C192.372803,280.255341 193.378601,279.263214 192.521500,276.967285 
	C185.650055,258.560608 186.582962,240.173752 194.375107,222.469040 
	C200.882812,207.682739 211.783676,196.506500 226.218628,188.797699 
	C233.175385,185.082535 240.652206,183.201935 248.468018,180.975204 
	C250.528015,179.375839 252.657013,179.211288 255.151642,179.006439 
	C257.713623,179.428162 259.890472,179.840225 262.461639,179.161774 
	C263.796204,178.865570 264.786255,178.783539 266.153442,178.698029 
	C266.780579,178.682236 267.032104,178.682175 267.661926,178.701385 
	C268.806366,178.794357 269.536041,178.991867 270.486237,179.628387 
z"/>
<path fill="#313A3E" opacity="1.000000" stroke="none" 
	d="
M266.861267,179.808350 
	C265.631226,179.983704 264.724274,180.006683 263.476990,180.026794 
	C261.347961,177.852020 262.511414,175.527603 262.981018,173.361649 
	C264.496735,166.370865 266.440887,159.479706 268.100708,152.521362 
	C269.175568,148.015396 268.818939,147.577728 264.292969,147.477325 
	C261.133392,147.407242 257.964294,147.592392 254.811890,147.430084 
	C251.193344,147.243759 249.961075,148.520172 251.006149,152.154388 
	C252.983429,159.030380 254.187729,166.100418 256.002716,173.022537 
	C256.543091,175.083435 257.379791,177.170837 256.228760,179.650955 
	C253.866638,180.277908 251.768738,180.617279 249.259125,180.936600 
	C241.969681,171.666168 235.090378,162.416962 228.215363,153.164581 
	C226.558212,150.934387 224.846710,148.740143 223.288803,146.442154 
	C222.178131,144.803894 221.806747,143.096420 223.790039,141.683182 
	C226.157578,139.996140 227.390518,136.852097 230.992798,136.480774 
	C232.087753,137.876450 230.957092,139.217621 231.529694,140.549423 
	C233.987717,140.839615 236.464111,140.598145 238.933762,140.617264 
	C240.997757,140.633255 242.964401,140.330032 243.852264,138.073792 
	C244.219864,137.139633 244.538742,136.015076 243.685043,135.280807 
	C241.962219,133.799011 239.931641,134.439697 238.002457,134.828033 
	C236.063797,135.218277 234.403107,136.556931 232.000061,136.429794 
	C232.046112,132.214355 234.685181,130.207474 238.427704,130.165588 
	C252.395020,130.009216 266.367767,129.959106 280.332642,130.203308 
	C284.319763,130.273026 287.004181,133.536850 289.666168,136.169052 
	C298.624268,145.026947 298.288483,144.817688 290.014832,154.550919 
	C283.301422,162.448654 277.407440,171.042938 270.953552,179.612335 
	C270.059845,179.926697 269.362640,179.957016 268.317261,179.936066 
	C268.258087,175.960175 271.074951,173.376816 273.221252,170.552994 
	C278.832764,163.170059 284.169708,155.605301 289.365570,148.154922 
	C289.175964,147.568237 288.935486,147.368454 288.557434,147.386688 
	C284.442535,147.585266 279.792816,145.991989 276.345764,148.152740 
	C272.761749,150.399384 274.544586,155.519897 273.168304,159.203506 
	C270.680023,165.863449 270.451233,173.205429 266.861267,179.808350 
z"/>
<path fill="#BDDAD4" opacity="1.000000" stroke="none" 
	d="
M262.951294,97.057129 
	C263.311768,103.113823 262.576294,108.526527 260.373322,114.003654 
	C257.892334,110.983620 258.535736,107.148666 258.361328,104.109009 
	C258.050049,98.684570 256.769745,93.218864 257.897034,87.648415 
	C258.377472,85.274376 258.585144,82.072029 260.926147,82.443596 
	C263.153442,82.797127 264.117920,86.471970 263.521606,88.786499 
	C262.836884,91.444199 263.344147,94.010048 262.951294,97.057129 
z"/>
<path fill="#BDDAD4" opacity="1.000000" stroke="none" 
	d="
M278.042969,113.038506 
	C281.159698,108.148773 284.147217,103.570778 287.347687,99.146843 
	C288.270966,97.870605 289.742889,96.943359 291.082947,96.032188 
	C292.098663,95.341576 293.294952,94.351357 294.471130,95.893448 
	C295.460236,97.190308 294.022980,98.024658 293.570648,98.670349 
	C289.818542,104.026512 285.670715,109.072144 280.919769,113.600906 
	C280.048157,114.431732 279.111481,115.330048 277.971954,115.081963 
	C276.285461,114.714806 277.975189,113.987648 278.042969,113.038506 
z"/>
<path fill="#BDDAD4" opacity="1.000000" stroke="none" 
	d="
M235.732483,105.444626 
	C236.555817,109.285347 239.959976,111.834831 239.485062,116.351234 
	C234.501495,110.803520 230.315002,105.329353 227.126709,99.153343 
	C226.537552,98.012123 224.918793,96.334663 226.691071,95.265808 
	C228.500076,94.174774 229.743958,96.043297 230.652725,97.345535 
	C232.401733,99.851761 233.931488,102.511009 235.732483,105.444626 
z"/>
<path fill="#BDDAD4" opacity="1.000000" stroke="none" 
	d="
M324.457031,118.042442 
	C326.143646,118.236771 328.267456,117.268631 327.940704,119.877693 
	C327.583282,122.731667 326.603668,125.491882 323.301178,125.951599 
	C320.752808,126.306335 318.115540,126.022346 314.916779,126.022346 
	C317.625244,122.294083 320.990814,120.338852 324.457031,118.042442 
z"/>
<path fill="#BDDAD4" opacity="1.000000" stroke="none" 
	d="
M302.240601,118.217377 
	C299.638916,120.455139 298.079956,123.308472 295.015900,124.533295 
	C294.123505,124.890015 293.549744,125.007935 292.867981,124.351044 
	C292.397980,123.898170 292.007874,123.559494 292.608215,122.829994 
	C294.949615,119.984810 297.035431,116.888771 299.669556,114.357750 
	C300.223633,113.825378 302.544525,112.034904 303.914185,113.657661 
	C305.407684,115.427078 303.674866,116.743340 302.240601,118.217377 
z"/>
<path fill="#E1D9DA" opacity="1.000000" stroke="none" 
	d="
M200.797302,126.015724 
	C199.395706,126.001099 198.349930,126.187614 197.421371,125.938049 
	C194.734604,125.215950 193.696381,122.972122 193.086884,120.561821 
	C192.877533,119.733948 192.601669,118.390099 193.955475,118.113243 
	C196.227112,117.648689 198.064362,118.730255 199.670898,120.206032 
	C201.444260,121.835060 203.166809,123.519386 205.792145,126.017677 
	C203.376221,126.017677 202.291428,126.017677 200.797302,126.015724 
z"/>
<path fill="#BDDAD4" opacity="1.000000" stroke="none" 
	d="
M223.716705,117.282974 
	C225.855621,119.125671 227.325623,120.980377 228.018646,123.445618 
	C223.077179,123.570511 218.110565,118.911812 217.199051,113.239037 
	C220.112762,113.257942 221.705002,115.283051 223.716705,117.282974 
z"/>
<path fill="#000000" opacity="1.000000" stroke="none" 
	d="
M220.810715,312.229675 
	C228.707886,317.285767 236.829651,321.002716 245.791489,322.272827 
	C252.581955,323.235199 259.351654,325.279510 266.374176,323.105011 
	C269.374969,322.175842 271.540558,323.250610 272.580444,326.899109 
	C280.284790,353.930328 271.623627,374.798645 247.641495,388.871613 
	C228.647797,400.017365 205.192230,395.465698 190.010406,379.610596 
	C183.581467,372.896606 178.202972,365.805969 176.251190,356.482849 
	C173.085495,341.361206 174.938156,327.263123 184.045227,314.404205 
	C188.550476,308.042938 194.489120,303.458557 201.047501,299.472504 
	C203.214005,298.155762 204.740768,298.015930 206.630600,300.043762 
	C210.809875,304.528168 214.994141,309.066467 220.810715,312.229675 
z"/>
<path fill="#000000" opacity="1.000000" stroke="none" 
	d="
M270.586090,202.783493 
	C284.797150,205.846542 295.766113,213.885559 302.419220,225.537750 
	C312.833435,243.777100 314.673035,263.563599 298.406158,284.158478 
	C294.117645,289.588043 288.939667,293.677856 283.015778,297.007172 
	C281.092621,298.087982 279.669586,298.200500 277.914642,296.131897 
	C267.927582,284.360046 254.779800,277.820801 240.089355,274.020874 
	C236.386719,273.063141 232.598434,272.792419 228.317627,273.019348 
	C225.877472,272.016266 223.782272,272.652435 221.443695,272.721222 
	C215.575241,274.194397 212.340317,272.284088 211.138062,266.423615 
	C210.089417,261.311951 208.808533,256.278656 209.061432,250.572266 
	C209.954147,248.373322 209.267166,246.474319 209.819427,244.348206 
	C210.060532,244.031708 210.025177,244.035034 210.047501,244.039566 
	C210.443176,243.568939 210.505234,242.983719 210.821243,242.196655 
	C213.075424,227.872375 220.732101,217.546768 232.425522,209.809769 
	C237.166534,206.672882 242.239502,204.559357 247.946701,203.042557 
	C249.996490,202.127350 252.088669,203.113815 254.242004,201.692108 
	C259.891998,200.942764 265.014984,202.255478 270.586090,202.783493 
z"/>
<path fill="#E19042" opacity="1.000000" stroke="none" 
	d="
M286.995819,314.735565 
	C287.571167,315.323242 287.829132,315.764130 288.095673,316.467712 
	C292.020721,328.266083 293.883881,339.982849 292.596344,352.258087 
	C291.698425,360.818878 288.234558,368.442932 285.323486,376.751160 
	C285.178589,377.147461 285.225128,377.151855 285.229614,377.174805 
	C283.473907,378.109100 283.122314,379.940552 282.286560,381.843628 
	C282.169952,382.155396 282.217407,382.090424 282.215393,382.130615 
	C281.096191,382.639679 280.793945,383.717529 280.234985,384.986755 
	C275.121002,392.713989 268.531982,398.424652 260.581116,403.088135 
	C253.377426,405.467072 247.000366,408.890900 239.739868,410.453033 
	C228.743027,412.819031 218.041916,412.569336 207.249619,410.022247 
	C205.948090,409.715057 204.650223,409.495209 202.953003,409.243164 
	C202.576691,409.130310 202.286072,409.185791 202.155762,409.115753 
	C198.958496,406.408203 194.947220,405.587036 191.507477,403.598206 
	C186.448898,400.673370 182.507416,396.336273 177.177124,393.276031 
	C176.847427,393.136383 176.895538,393.053741 176.908600,393.099731 
	C176.778366,392.825897 176.575607,392.549774 176.076477,392.209900 
	C175.839691,392.102417 175.929764,392.064117 175.915497,392.110931 
	C175.774139,391.831055 175.579514,391.551361 175.089722,391.193970 
	C174.862106,391.069275 174.943436,391.053802 174.938263,391.094849 
	C174.782837,390.823486 174.575821,390.553833 174.091537,390.201355 
	C173.863632,390.081390 173.950348,390.047516 173.935043,390.091492 
	C173.777573,389.824646 173.579987,389.554352 173.116684,389.182251 
	C172.906311,389.040009 172.978516,389.016205 172.968781,389.052948 
	C172.799530,388.799316 172.593536,388.546814 172.158783,388.167847 
	C171.976456,388.003479 172.002823,387.998962 171.996841,388.010956 
	C171.331757,387.187195 171.097305,386.067993 169.926727,385.253784 
	C169.343979,385.041290 169.141052,384.858490 168.973953,384.378967 
	C168.210556,381.698181 166.711121,379.639648 165.063110,377.330444 
	C164.759354,377.162476 164.761078,377.051697 164.775146,377.104523 
	C163.577148,374.647675 163.325684,371.714264 161.123978,369.316010 
	C160.831238,369.119995 160.855453,369.040131 160.874298,369.077362 
	C160.075287,367.616547 159.926682,366.005280 160.156830,363.968384 
	C165.648499,358.462097 163.145737,352.066437 163.041321,345.978424 
	C161.911148,347.737457 161.893387,350.051086 159.643921,351.397858 
	C156.336472,350.921234 157.150284,348.543884 157.022659,346.696472 
	C156.384766,337.463531 158.232300,328.546967 160.754150,319.310944 
	C160.943344,318.923584 160.964172,319.005768 160.935196,318.974823 
	C164.143188,317.468140 163.453293,314.048767 164.727768,311.198181 
	C164.878311,310.869232 164.863663,310.973907 164.841522,310.925903 
	C166.714981,309.149811 168.106339,307.119537 168.799774,304.271057 
	C168.992371,303.986328 169.000000,304.000000 168.992981,303.996185 
	C170.990799,303.134735 171.984314,301.464539 172.769928,299.204285 
	C172.938248,298.916534 172.990555,298.976807 172.950974,298.971741 
	C173.214355,298.772064 173.477768,298.534332 173.810486,298.004456 
	C173.982986,297.475677 174.132248,297.250031 174.565292,297.007812 
	C175.092102,296.790253 175.391830,296.595978 175.798660,296.117981 
	C175.940689,295.888184 175.903366,295.963379 175.890320,295.923492 
	C178.863312,294.989838 180.477356,292.454285 182.623062,290.073425 
	C182.775009,289.773743 182.784882,289.835663 182.807465,289.813904 
	C185.376938,288.993134 187.438873,287.326935 189.662552,285.953949 
	C191.557617,284.783813 193.452148,283.894592 195.929123,285.547119 
	C196.269165,285.706360 196.272446,285.761444 196.274567,285.788971 
	C196.866364,286.641418 195.108185,288.610962 197.880676,288.687683 
	C198.170166,288.862488 198.124786,288.934479 198.103836,288.897461 
	C198.190948,289.175323 198.371902,289.440521 198.803894,289.821472 
	C200.184937,291.763306 201.387848,293.539673 202.723557,295.512146 
	C191.687347,301.299438 183.035141,309.361237 177.176971,320.704590 
	C176.738586,321.213074 176.513702,321.454681 176.216431,321.940125 
	C176.132050,322.172852 176.197021,322.113403 176.217972,322.152130 
	C173.623154,325.617035 173.280396,329.813995 172.238129,334.180115 
	C172.222427,335.180237 172.272125,335.796143 172.217087,336.710297 
	C169.974060,342.451996 170.679703,347.957214 171.999207,353.387207 
	C173.620712,360.059937 174.360077,367.125610 179.848297,372.643585 
	C180.161331,372.880737 180.101364,372.996948 180.110153,372.932159 
	C180.560577,373.800049 180.885040,374.799011 181.905090,375.716248 
	C182.170670,375.877838 182.097244,375.987671 182.110138,375.922882 
	C182.843887,377.741425 183.536728,379.645935 185.925201,380.647583 
	C186.223984,380.800079 186.141891,381.001984 186.166321,380.895844 
	C187.812653,383.942322 190.570694,385.868469 193.854401,387.666748 
	C194.184341,387.750153 194.228485,387.779877 194.246826,387.760620 
	C196.429962,390.334808 199.286484,391.757599 202.811554,392.729553 
	C203.136627,392.859985 203.053635,392.908142 203.058319,392.860413 
	C203.626190,393.824432 204.665253,393.382263 205.787781,393.764526 
	C206.089188,393.923218 205.997742,393.927979 206.035599,393.902222 
	C210.747925,396.540314 215.772888,397.307434 221.139420,397.640808 
	C231.141846,398.262207 240.604263,396.478912 249.474426,392.197662 
	C255.191177,389.438416 261.058929,386.453186 264.501892,380.086792 
	C264.654144,379.737976 264.707245,379.712494 264.713440,379.683716 
	C267.292816,378.349121 268.912476,376.289673 269.742188,373.182190 
	C269.891022,372.876129 269.882355,372.987152 269.863403,372.934814 
	C271.512177,371.875305 272.689453,370.545715 272.670929,368.137512 
	C272.934296,367.030334 273.267914,366.261871 273.786133,365.238220 
	C275.172241,364.007446 275.446045,362.607941 275.762756,360.849121 
	C275.849548,360.149841 275.873444,359.800690 276.005737,359.209167 
	C279.320679,352.063751 279.375031,344.825684 278.106903,337.214264 
	C275.441833,325.494751 270.836639,315.150421 262.570953,306.673645 
	C253.604309,297.477997 242.461105,292.823517 229.896927,291.185913 
	C226.036209,290.682709 215.759399,280.785675 215.561279,277.109070 
	C215.418488,274.459381 217.868591,275.161835 219.237915,275.089844 
	C235.802017,274.219269 251.111603,278.030396 264.809784,287.631622 
	C270.576111,291.673279 275.585114,296.502472 279.990234,302.400208 
	C280.399292,303.349182 280.465302,304.067169 281.072327,304.888885 
	C281.676300,305.269226 281.769348,305.541931 281.502533,306.058777 
	C281.187286,307.941162 282.952972,307.706665 283.987152,308.698303 
	C284.569153,309.307037 284.831818,309.749237 285.115906,310.455292 
	C285.751740,311.968933 285.814117,313.438568 286.995819,314.735565 
z"/>
<path fill="#FAAC55" opacity="1.000000" stroke="none" 
	d="
M311.759674,264.742249 
	C311.696686,264.086700 311.617645,263.782928 311.665802,263.264282 
	C314.467590,256.434814 314.050690,249.521210 312.835388,242.832047 
	C311.518982,235.586365 309.555115,228.359894 304.069611,222.410446 
	C303.743622,222.220001 303.729706,222.105942 303.755951,222.157013 
	C301.642639,218.753326 300.645325,214.393692 295.915375,212.701416 
	C295.568207,212.686783 295.428253,212.581207 295.369781,212.515900 
	C292.376984,208.311371 288.417511,205.673065 283.199860,204.252640 
	C282.874481,204.104813 282.986145,204.085449 282.942200,204.121246 
	C279.846985,201.017609 275.573792,200.042145 271.728333,199.376160 
	C260.188568,197.377655 248.679932,197.815002 237.681030,202.628586 
	C234.307480,204.104996 231.190918,205.927582 228.336441,208.843887 
	C228.103226,209.148468 228.018936,209.049881 228.076813,209.079132 
	C221.753647,211.398773 218.133453,216.868027 214.703445,221.984299 
	C205.621536,235.530960 204.048355,250.550354 207.554932,266.306641 
	C208.463486,270.389130 209.390640,274.348969 212.768890,277.671570 
	C213.058914,277.930725 213.003708,277.969299 213.036270,277.962158 
	C213.993317,280.915253 215.144562,283.734619 218.165863,285.694946 
	C218.983490,286.278625 219.457565,286.772919 220.021469,287.509399 
	C220.226440,288.100739 220.416046,288.404602 220.915070,288.787354 
	C221.160461,288.905151 221.033661,288.918182 221.087921,288.884766 
	C221.565033,290.127167 222.242645,291.177826 223.890533,291.765076 
	C224.495331,291.942871 224.744858,292.090820 225.018936,292.549011 
	C226.081039,294.633545 227.439026,296.066833 229.916336,296.614960 
	C230.254425,296.640686 230.320740,296.640594 230.353851,296.638977 
	C233.500214,300.476868 238.026779,301.574402 242.788239,302.803894 
	C243.539841,302.814728 243.960297,302.880341 244.676712,303.067535 
	C245.620270,303.691650 246.329834,304.467773 247.040527,304.441101 
	C254.201614,304.172089 259.487244,307.774506 264.551575,312.761841 
	C264.861389,312.974792 265.127625,313.193604 265.162842,313.362274 
	C266.979126,319.928375 266.566650,320.186554 260.123260,320.557556 
	C251.314423,321.064789 243.269119,317.453125 234.342834,316.249603 
	C233.921799,316.061707 234.001221,316.017120 233.973267,316.053101 
	C232.515472,314.399048 230.592178,313.709595 228.155609,313.281982 
	C227.827454,313.168549 227.951553,313.192719 227.890289,313.208374 
	C224.566727,309.854889 220.393356,307.809784 216.134903,305.300751 
	C215.802734,305.195923 215.960983,305.219971 215.880508,305.222870 
	C214.398148,302.997131 212.334625,301.324341 210.436218,299.377075 
	C203.937698,296.604156 202.493835,290.022675 198.830658,284.773895 
	C198.694946,283.599121 198.500427,282.825317 197.414856,282.202209 
	C197.174103,282.006409 197.028641,281.554474 196.990967,281.320068 
	C191.295227,268.319977 190.890808,254.930878 191.938995,241.288284 
	C192.393997,235.366364 195.453308,230.304611 196.718170,224.249847 
	C196.869659,223.856461 196.898697,223.939896 196.854553,223.938309 
	C197.442184,223.621918 197.497482,222.991608 197.742432,222.122055 
	C197.839844,221.832321 197.821426,221.954453 197.801025,221.896164 
	C201.155807,219.053116 202.979340,215.028915 205.288666,211.528854 
	C209.411835,205.279709 214.907120,200.743790 220.653442,196.293457 
	C221.676651,195.500992 222.969742,194.950165 223.796417,193.397430 
	C224.012238,193.119400 224.276657,192.890839 224.450897,192.877289 
	C231.699707,190.540268 238.167786,186.593674 245.580276,185.155045 
	C257.302948,182.879852 268.878265,183.737549 280.778778,186.687241 
	C281.174225,186.806305 281.078918,186.830963 281.090576,186.783142 
	C281.601135,187.866806 282.684998,187.369125 283.836792,187.710022 
	C284.165955,187.821014 284.107666,187.765182 284.147339,187.757690 
	C284.471344,188.368912 284.885223,188.927078 285.509491,189.164490 
	C295.756989,193.061630 303.898041,199.953857 311.915405,207.642395 
	C312.224762,207.818161 312.153931,207.885788 312.137054,207.839813 
	C312.222687,208.145859 312.407867,208.445084 312.936279,208.790619 
	C313.184204,208.897797 313.071289,208.903656 313.113220,208.865723 
	C315.429810,212.846863 317.689850,216.867371 320.120300,220.803757 
	C323.259308,225.887711 324.661316,231.735947 326.495544,237.378571 
	C327.649597,240.928818 324.842041,241.914291 322.624573,243.740753 
	C319.950287,250.516113 319.401123,256.875519 323.524780,263.339844 
	C325.965088,266.641174 325.345734,269.754089 324.333344,273.005463 
	C323.806335,274.698059 323.066589,276.382080 323.045319,278.616638 
	C322.926788,279.580475 322.798340,280.143311 322.450562,280.897858 
	C317.846405,284.109741 317.034058,289.378448 314.288757,293.841370 
	C314.163391,294.173309 314.128632,294.000458 314.164703,294.080933 
	C311.916168,295.963654 309.651703,297.784332 308.248383,300.826538 
	C308.101196,301.128235 308.041260,301.056122 308.088074,301.058899 
	C307.825562,301.215637 307.554688,301.420380 307.183411,301.892395 
	C307.044495,302.108673 307.031311,302.024872 307.067047,302.047729 
	C306.572021,302.417969 305.911102,302.460022 305.399658,303.118042 
	C305.419830,303.430756 305.384155,303.502075 305.383331,303.541931 
	C303.419403,303.744324 302.743591,305.566681 301.293579,306.887512 
	C301.118195,307.158051 300.999268,307.081207 301.067322,307.100647 
	C298.830719,307.933350 296.788635,309.231079 294.781708,310.587280 
	C293.127716,311.704987 291.440918,312.595215 288.993225,311.560150 
	C288.606384,311.429230 288.596588,311.338379 288.609619,311.294586 
	C287.894897,307.188232 283.916260,304.013519 285.480133,298.996887 
	C285.586792,298.639557 285.671478,298.628204 285.713135,298.637817 
	C286.874023,298.607971 287.749084,298.049927 288.679504,297.043091 
	C288.810089,296.754242 288.959747,296.798950 288.881714,296.802368 
	C291.601501,295.346527 294.852753,294.509247 296.437988,290.953247 
	C296.508301,290.615875 296.588501,290.602692 296.608337,290.567230 
	C298.042297,290.569519 298.080078,289.274963 298.795074,288.207581 
	C298.966339,287.945007 299.001099,287.993896 298.971619,287.988342 
	C299.220367,287.777893 299.467499,287.540619 299.814575,287.048523 
	C299.976105,286.526703 300.106720,286.280365 300.532471,286.000671 
	C301.088074,285.782288 301.408081,285.585968 301.772766,285.044586 
	C301.864838,284.774811 301.816589,284.872192 301.780426,284.831635 
	C302.903809,284.425171 303.154236,283.334320 303.745941,282.131500 
	C303.860352,281.838623 303.920654,281.981689 303.869446,281.923340 
	C308.686554,277.326874 310.654724,271.418213 311.759674,264.742249 
z"/>
<path fill="#7CCAD1" opacity="1.000000" stroke="none" 
	d="
M256.211731,180.239059 
	C253.842163,170.755661 251.763763,161.562332 249.582352,152.393509 
	C248.059708,145.993622 247.996689,146.014435 254.815002,146.039719 
	C259.128693,146.055710 263.444794,146.138306 267.755341,146.022827 
	C270.290771,145.954880 271.341064,146.371475 270.547302,149.360489 
	C267.913971,159.276642 265.574554,169.270844 263.129517,179.629532 
	C261.023834,181.660492 258.719055,180.810669 256.211731,180.239059 
z"/>
<path fill="#51C2C9" opacity="1.000000" stroke="none" 
	d="
M266.897156,179.965836 
	C268.879700,169.976135 272.009766,160.162704 273.397278,149.975342 
	C273.820007,146.871658 275.037933,145.807587 278.109009,145.949585 
	C282.726471,146.163040 287.361115,146.005157 293.078369,146.005157 
	C284.402618,157.587296 276.286011,168.423019 268.069244,179.571777 
	C267.731506,179.913498 267.493866,179.942215 266.897156,179.965836 
z"/>
<path fill="#E8A466" opacity="1.000000" stroke="none" 
	d="
M323.310730,278.764648 
	C320.885956,276.778534 323.051086,274.622528 323.417206,272.567780 
	C323.923737,269.724701 324.407501,267.053864 323.003632,263.934998 
	C322.016846,260.091095 324.002136,256.905640 323.682037,253.444366 
	C323.381195,250.190933 323.325653,246.951782 321.598755,243.684586 
	C321.471985,242.954712 321.507050,242.142181 321.766968,242.062424 
	C328.590210,239.968567 324.977722,236.126175 323.880920,232.124680 
	C321.626221,223.898605 315.429138,217.687576 313.108765,209.214493 
	C325.601044,223.226471 329.978455,240.139130 328.522949,258.783936 
	C327.990326,265.606567 326.380920,272.227905 323.310730,278.764648 
z"/>
<path fill="#E8A466" opacity="1.000000" stroke="none" 
	d="
M213.018066,277.570862 
	C209.336777,276.368011 207.167831,273.876495 206.938156,269.553131 
	C206.615738,263.483917 204.980286,257.584991 204.898941,251.410370 
	C204.687805,235.384613 211.696442,222.633041 221.991837,211.183578 
	C223.413635,209.602402 225.376221,209.286606 227.743256,209.078033 
	C220.478149,215.908157 213.670563,223.368668 210.171432,233.233337 
	C204.837479,248.270630 205.697205,262.956573 213.018066,277.570862 
z"/>
<path fill="#D28C52" opacity="1.000000" stroke="none" 
	d="
M285.476715,376.970398 
	C284.733643,374.597504 285.087433,372.230225 286.579498,370.036011 
	C289.514954,365.719116 290.134369,360.599701 290.909821,355.686462 
	C292.836761,343.477234 292.216431,331.366791 288.121582,319.567993 
	C287.914429,318.971161 288.055695,318.253418 288.069489,317.161163 
	C295.387146,331.740540 295.779938,347.275787 291.449646,363.097656 
	C290.142761,367.872681 288.559937,372.599304 285.476715,376.970398 
z"/>
<path fill="#D28C52" opacity="1.000000" stroke="none" 
	d="
M161.238831,362.645142 
	C160.991226,364.726135 160.979691,366.480377 160.930634,368.674591 
	C157.777939,365.087006 156.713058,360.029205 156.338608,355.417969 
	C155.350510,343.248932 154.812546,330.911224 160.661133,319.153961 
	C161.005890,325.198792 158.590683,331.129730 158.376984,337.365265 
	C158.222443,341.874573 156.796921,346.465881 159.607880,350.915527 
	C163.827850,354.347717 161.637711,358.465302 161.238831,362.645142 
z"/>
<path fill="#D28C52" opacity="1.000000" stroke="none" 
	d="
M264.346497,379.829346 
	C265.668488,383.921997 262.210266,385.981567 259.865143,387.649658 
	C250.999039,393.955963 240.712402,398.138458 230.075546,398.377014 
	C222.245163,398.552673 213.297714,400.735535 206.107697,394.246887 
	C220.909225,398.571655 235.427246,398.251984 249.465881,391.022064 
	C254.967880,388.188568 259.703552,384.307190 264.346497,379.829346 
z"/>
<path fill="#E8A466" opacity="1.000000" stroke="none" 
	d="
M228.440704,209.062286 
	C230.072052,203.857315 235.042938,202.390030 239.540222,200.799545 
	C253.195648,195.970245 266.936615,196.349045 280.600067,201.076828 
	C281.824860,201.500641 282.650635,202.101074 282.891785,203.776306 
	C270.876434,199.339981 258.622009,197.448380 245.867416,200.994446 
	C239.709808,202.706375 234.109833,205.535019 228.440704,209.062286 
z"/>
<path fill="#D28C52" opacity="1.000000" stroke="none" 
	d="
M202.868744,409.402832 
	C207.434174,408.558105 212.086182,410.144196 216.809433,410.719421 
	C231.390152,412.495209 244.853470,409.385376 257.763519,402.874573 
	C258.257782,402.625305 259.004395,402.876343 259.939575,403.023804 
	C249.640594,410.412750 237.698730,413.002014 225.079163,413.185028 
	C217.572723,413.293884 210.257950,412.150238 202.868744,409.402832 
z"/>
<path fill="#E8A466" opacity="1.000000" stroke="none" 
	d="
M280.942444,186.517059 
	C274.665161,188.044174 268.741852,184.435883 262.208466,184.740692 
	C252.073227,185.213562 241.989929,185.274872 232.940735,190.688660 
	C230.602036,192.087799 228.228256,193.053955 225.052521,192.904907 
	C240.077499,183.037872 256.845093,181.030640 274.515106,184.529984 
	C276.610199,184.944901 278.646881,185.654709 280.942444,186.517059 
z"/>
<path fill="#E8A466" opacity="1.000000" stroke="none" 
	d="
M196.587265,224.073395 
	C197.240662,227.605560 196.364792,231.019287 194.460876,234.289612 
	C191.556274,239.278824 192.722046,245.050049 192.291122,250.355759 
	C191.619247,258.628387 191.971176,267.192688 196.371368,274.845398 
	C197.338074,276.526672 196.934265,278.419189 196.972229,280.659698 
	C190.665634,271.164307 190.310776,260.010223 190.610474,248.846329 
	C190.838776,240.341644 191.705231,231.846115 196.587265,224.073395 
z"/>
<path fill="#E8A466" opacity="1.000000" stroke="none" 
	d="
M223.680267,193.186050 
	C224.332977,195.149078 222.932022,196.081940 221.518585,196.976196 
	C212.692734,202.560196 206.917694,210.899612 201.315887,219.383484 
	C200.579834,220.498245 200.085312,221.751846 198.149323,221.857574 
	C203.059174,209.407928 212.224945,200.454849 223.680267,193.186050 
z"/>
<path fill="#E8A466" opacity="1.000000" stroke="none" 
	d="
M303.821655,222.560410 
	C309.812744,224.188339 309.790222,230.296234 311.787506,234.767227 
	C315.024139,242.012436 314.501526,250.026764 314.630310,257.813751 
	C314.660919,259.663757 313.470642,261.194458 312.102478,262.860718 
	C313.003662,252.877991 312.929688,242.855698 309.093140,233.101654 
	C307.679413,229.507385 305.593719,226.317810 303.821655,222.560410 
z"/>
<path fill="#D28C52" opacity="1.000000" stroke="none" 
	d="
M180.092239,372.532715 
	C176.170410,372.224426 175.008652,368.740723 174.209183,365.795746 
	C172.062302,357.887512 169.018509,350.064362 170.009369,341.594269 
	C170.189362,340.055603 169.326050,338.191925 171.706787,337.089813 
	C171.239944,349.523132 173.400879,361.355591 180.092239,372.532715 
z"/>
<path fill="#E8A466" opacity="1.000000" stroke="none" 
	d="
M312.140503,207.490540 
	C310.015320,208.203949 309.098663,206.352097 307.739868,205.245865 
	C300.915131,199.689514 294.674774,193.253006 285.823914,190.743225 
	C284.805176,190.454346 284.241302,189.612946 284.163391,188.136658 
	C295.428986,191.418442 304.500519,198.202637 312.140503,207.490540 
z"/>
<path fill="#E8A466" opacity="1.000000" stroke="none" 
	d="
M234.169403,316.331604 
	C239.165802,315.385925 243.996231,317.327179 248.932617,318.506287 
	C252.464462,319.349884 255.982788,319.857208 259.624725,320.119476 
	C264.190430,320.448181 265.608978,318.626099 265.141907,314.002686 
	C267.036804,315.394897 269.742920,317.653442 268.783875,319.995544 
	C267.846802,322.283936 264.333282,321.062683 261.981384,321.179443 
	C252.483337,321.651062 243.269302,320.149384 234.169403,316.331604 
z"/>
<path fill="#D28C52" opacity="1.000000" stroke="none" 
	d="
M176.961639,393.453949 
	C179.512573,392.485809 181.420547,394.255157 182.954575,395.724976 
	C188.123962,400.678040 194.014832,404.332520 200.637039,406.930634 
	C201.161591,407.136414 201.484100,407.857178 201.962982,408.692169 
	C192.313309,406.233978 184.178818,400.845215 176.961639,393.453949 
z"/>
<path fill="#E8A466" opacity="1.000000" stroke="none" 
	d="
M264.769623,312.659119 
	C262.568054,313.030579 260.288452,312.414917 259.321411,310.358429 
	C257.435944,306.348816 254.365707,305.534576 250.404724,305.954071 
	C248.399170,306.166443 246.415314,305.839905 245.065826,303.546051 
	C252.385468,304.422943 260.360138,304.447296 264.769623,312.659119 
z"/>
<path fill="#000000" opacity="1.000000" stroke="none" 
	d="
M235.014740,295.384949 
	C241.060410,295.382416 246.322021,297.801941 251.155701,301.380280 
	C245.328354,300.842651 239.795776,299.436707 235.014740,295.384949 
z"/>
<path fill="#E8A466" opacity="1.000000" stroke="none" 
	d="
M311.495514,264.660187 
	C313.099304,271.763123 309.458252,277.085358 304.184418,281.874756 
	C306.868500,276.475342 309.372314,270.846924 311.495514,264.660187 
z"/>
<path fill="#D28C52" opacity="1.000000" stroke="none" 
	d="
M277.797974,337.421387 
	C281.601288,344.375610 280.080231,351.534851 276.422638,358.784668 
	C277.420868,352.001373 278.490204,345.017151 277.797974,337.421387 
z"/>
<path fill="#E8A466" opacity="1.000000" stroke="none" 
	d="
M314.464478,294.016052 
	C315.533997,289.218658 315.472717,283.462982 321.854065,281.095093 
	C320.535126,285.809296 317.854736,289.953552 314.464478,294.016052 
z"/>
<path fill="#D28C52" opacity="1.000000" stroke="none" 
	d="
M196.199966,285.371704 
	C191.027893,284.054718 188.301239,289.956329 183.214630,289.858276 
	C185.421204,286.236115 189.549652,284.806030 193.066177,282.575653 
	C195.520981,281.018677 194.970352,284.344696 196.199966,285.371704 
z"/>
<path fill="#E8A466" opacity="1.000000" stroke="none" 
	d="
M285.249390,298.718384 
	C286.677032,302.586487 287.767242,306.533386 288.740051,310.865540 
	C286.792877,308.555450 285.074432,305.775177 283.102509,303.188171 
	C281.048370,300.493256 282.497131,299.511017 285.249390,298.718384 
z"/>
<path fill="#E8A466" opacity="1.000000" stroke="none" 
	d="
M283.064697,204.390991 
	C288.649170,204.136230 292.832336,206.838257 295.505615,212.099258 
	C291.292511,209.859467 287.273682,207.268326 283.064697,204.390991 
z"/>
<path fill="#E8A466" opacity="1.000000" stroke="none" 
	d="
M215.954407,305.496429 
	C221.152084,305.431122 224.558075,308.883942 227.851349,312.855225 
	C223.411743,311.552734 219.642807,308.858093 215.954407,305.496429 
z"/>
<path fill="#E8A466" opacity="1.000000" stroke="none" 
	d="
M242.863571,302.514984 
	C238.976608,303.800323 232.769119,301.229950 230.295746,297.019318 
	C234.460556,298.518524 238.534149,300.399719 242.863571,302.514984 
z"/>
<path fill="#E8A466" opacity="1.000000" stroke="none" 
	d="
M288.675781,311.764038 
	C293.212982,311.816925 296.018066,307.367615 300.748840,307.085449 
	C298.641724,309.710419 295.471985,311.302124 292.424957,313.091827 
	C290.753906,314.073334 289.443726,314.400177 288.675781,311.764038 
z"/>
<path fill="#E8A466" opacity="1.000000" stroke="none" 
	d="
M295.658936,212.977722 
	C298.547638,211.139969 300.938995,213.138565 301.535278,215.163300 
	C302.176300,217.339935 303.876984,219.079315 303.844543,221.812347 
	C301.104675,219.228256 298.427155,216.248459 295.658936,212.977722 
z"/>
<path fill="#D28C52" opacity="1.000000" stroke="none" 
	d="
M164.585052,311.051544 
	C164.288223,313.749420 167.196121,317.994141 161.312637,318.955933 
	C161.475235,316.128174 162.562744,313.540161 164.585052,311.051544 
z"/>
<path fill="#E8A466" opacity="1.000000" stroke="none" 
	d="
M296.205139,290.713989 
	C298.189270,297.081726 291.927490,294.843597 289.202637,296.862183 
	C291.169800,294.807892 293.535889,292.810028 296.205139,290.713989 
z"/>
<path fill="#313A3E" opacity="1.000000" stroke="none" 
	d="
M270.699768,202.718964 
	C265.629639,202.683304 260.291016,202.371445 254.499847,202.022766 
	C253.866577,202.135223 253.685822,202.284485 253.287338,202.157639 
	C258.925323,199.949677 264.675995,201.267059 270.699768,202.718964 
z"/>
<path fill="#D28C52" opacity="1.000000" stroke="none" 
	d="
M172.463226,334.292725 
	C171.680374,330.014435 172.930252,325.927795 175.851959,322.186829 
	C175.077179,326.134277 173.915451,330.077698 172.463226,334.292725 
z"/>
<path fill="#D28C52" opacity="1.000000" stroke="none" 
	d="
M194.046646,387.450134 
	C189.889679,387.765381 187.519882,385.284424 186.158829,381.163239 
	C188.763489,382.909851 191.336227,385.029999 194.046646,387.450134 
z"/>
<path fill="#D28C52" opacity="1.000000" stroke="none" 
	d="
M202.944244,392.579559 
	C199.171677,393.396637 196.332153,391.632538 194.219528,388.108521 
	C197.094055,389.260590 199.922958,390.779877 202.944244,392.579559 
z"/>
<path fill="#D28C52" opacity="1.000000" stroke="none" 
	d="
M182.452011,289.846985 
	C182.090576,293.178650 180.629593,295.815155 176.264694,295.922607 
	C177.450607,293.360535 179.800461,291.651550 182.452011,289.846985 
z"/>
<path fill="#D28C52" opacity="1.000000" stroke="none" 
	d="
M160.846619,369.481689 
	C166.242050,369.229919 163.255859,374.096405 164.852600,376.744141 
	C162.530914,375.229034 161.856812,372.450104 160.846619,369.481689 
z"/>
<path fill="#E8A466" opacity="1.000000" stroke="none" 
	d="
M308.402771,300.985596 
	C307.862885,297.237701 310.530334,295.573395 313.836121,294.140076 
	C313.115845,297.003235 310.601013,298.668854 308.402771,300.985596 
z"/>
<path fill="#E8A466" opacity="1.000000" stroke="none" 
	d="
M218.362091,285.467255 
	C213.915909,285.591064 213.351608,282.258301 213.045624,278.348694 
	C214.784149,280.353394 216.499466,282.751770 218.362091,285.467255 
z"/>
<path fill="#D28C52" opacity="1.000000" stroke="none" 
	d="
M269.591400,373.024750 
	C270.396851,376.452972 268.927246,378.773224 265.094147,379.741577 
	C266.243683,377.494415 267.767731,375.333893 269.591400,373.024750 
z"/>
<path fill="#E8A466" opacity="1.000000" stroke="none" 
	d="
M210.153381,299.863159 
	C213.107117,299.917633 215.237595,301.339722 215.858795,304.845886 
	C213.382111,304.168304 211.756714,302.226776 210.153381,299.863159 
z"/>
<path fill="#D28C52" opacity="1.000000" stroke="none" 
	d="
M272.353851,368.006226 
	C274.902740,370.660706 273.811035,372.212494 270.228149,372.916565 
	C270.598663,371.326172 271.352844,369.769897 272.353851,368.006226 
z"/>
<path fill="#D28C52" opacity="1.000000" stroke="none" 
	d="
M164.792374,377.510681 
	C167.565720,378.290192 169.240845,380.183838 168.951523,383.782532 
	C167.117523,382.356354 165.723602,380.268616 164.792374,377.510681 
z"/>
<path fill="#D28C52" opacity="1.000000" stroke="none" 
	d="
M186.152634,380.482056 
	C182.694229,381.625214 181.611557,379.942749 182.080200,376.286316 
	C183.890152,376.881836 184.884872,378.615631 186.152634,380.482056 
z"/>
<path fill="#E8A466" opacity="1.000000" stroke="none" 
	d="
M230.087540,296.367218 
	C227.558594,297.242920 225.195343,297.282227 225.078339,293.159973 
	C226.711029,293.866943 228.315842,294.980347 230.087540,296.367218 
z"/>
<path fill="#D28C52" opacity="1.000000" stroke="none" 
	d="
M168.701675,304.156677 
	C169.261780,306.986755 168.234909,309.338776 165.186066,310.870392 
	C165.147049,308.217560 167.133255,306.466522 168.701675,304.156677 
z"/>
<path fill="#D28C52" opacity="1.000000" stroke="none" 
	d="
M172.658371,299.082764 
	C172.879013,301.243530 172.831726,303.578064 169.360413,303.988831 
	C170.116791,302.411255 171.247635,300.830109 172.658371,299.082764 
z"/>
<path fill="#E8A466" opacity="1.000000" stroke="none" 
	d="
M228.016937,313.455872 
	C230.191162,312.925476 232.518097,312.784088 233.905365,315.720459 
	C232.032333,315.307098 230.119385,314.525146 228.016937,313.455872 
z"/>
<path fill="#E8A466" opacity="1.000000" stroke="none" 
	d="
M301.439209,307.087158 
	C301.186981,304.840240 302.288727,303.463318 305.027954,303.418335 
	C304.657074,305.234955 303.112946,306.024628 301.439209,307.087158 
z"/>
<path fill="#D28C52" opacity="1.000000" stroke="none" 
	d="
M282.468140,382.006836 
	C281.956848,380.035248 282.151520,378.104218 284.859314,377.181335 
	C284.898621,379.009155 283.892395,380.465454 282.468140,382.006836 
z"/>
<path fill="#313A3E" opacity="1.000000" stroke="none" 
	d="
M221.564377,272.920227 
	C223.118622,271.179749 225.311157,271.945770 227.664154,272.661774 
	C225.898987,272.966492 223.940689,272.952209 221.564377,272.920227 
z"/>
<path fill="#D28C52" opacity="1.000000" stroke="none" 
	d="
M287.258240,314.541992 
	C284.838562,314.934753 285.013916,313.193298 285.095276,311.131531 
	C286.216370,311.648407 286.927582,312.795868 287.258240,314.541992 
z"/>
<path fill="#D28C52" opacity="1.000000" stroke="none" 
	d="
M252.721039,202.009262 
	C253.069611,201.881531 253.552139,201.992218 253.799728,201.989090 
	C252.540405,203.665588 250.616211,202.361847 248.530273,202.700989 
	C249.549805,202.511765 250.961136,202.324387 252.721039,202.009262 
z"/>
<path fill="#D28C52" opacity="1.000000" stroke="none" 
	d="
M275.560181,360.745422 
	C275.777069,362.023102 276.684784,363.787750 274.353027,364.908386 
	C274.412079,363.652679 274.853424,362.322266 275.560181,360.745422 
z"/>
<path fill="#313A3E" opacity="1.000000" stroke="none" 
	d="
M209.774704,244.294250 
	C209.936554,245.892929 209.812592,247.754135 209.388611,249.874329 
	C209.170532,248.270767 208.693863,246.368149 209.774704,244.294250 
z"/>
<path fill="#D28C52" opacity="1.000000" stroke="none" 
	d="
M198.118256,288.554016 
	C196.105804,289.264923 195.160156,288.679718 196.166626,286.142395 
	C196.873245,286.626190 197.469803,287.435883 198.118256,288.554016 
z"/>
<path fill="#E8A466" opacity="1.000000" stroke="none" 
	d="
M224.046509,291.618103 
	C222.480225,292.057281 220.987213,291.925568 221.104797,289.242004 
	C222.064758,289.679382 222.987320,290.507446 224.046509,291.618103 
z"/>
<path fill="#D28C52" opacity="1.000000" stroke="none" 
	d="
M284.183533,308.530029 
	C282.856659,308.993225 281.739807,308.575439 281.327942,306.634064 
	C282.801483,306.128876 283.407196,307.194977 284.183533,308.530029 
z"/>
<path fill="#E8A466" opacity="1.000000" stroke="none" 
	d="
M303.576660,281.974121 
	C303.931915,283.075531 304.262817,284.430420 302.121338,284.811584 
	C302.260498,283.897247 302.776764,283.003418 303.576660,281.974121 
z"/>
<path fill="#D28C52" opacity="1.000000" stroke="none" 
	d="
M169.751923,385.428040 
	C171.188919,384.991943 171.973175,385.706116 171.988861,387.646423 
	C171.285233,387.256622 170.579620,386.490326 169.751923,385.428040 
z"/>
<path fill="#D28C52" opacity="1.000000" stroke="none" 
	d="
M280.407196,385.119263 
	C280.101227,384.053955 279.686310,382.653229 281.830139,382.169312 
	C281.703064,383.095703 281.192749,384.020569 280.407196,385.119263 
z"/>
<path fill="#E8A466" opacity="1.000000" stroke="none" 
	d="
M298.693970,288.080994 
	C298.916290,289.158020 299.235962,290.581726 296.996155,290.644104 
	C297.225983,289.760162 297.823822,288.988586 298.693970,288.080994 
z"/>
<path fill="#E8A466" opacity="1.000000" stroke="none" 
	d="
M288.502655,296.805939 
	C288.971375,298.468109 288.089447,299.045990 286.132935,298.756409 
	C286.568268,298.050812 287.381744,297.454224 288.502655,296.805939 
z"/>
<path fill="#D28C52" opacity="1.000000" stroke="none" 
	d="
M182.107910,375.569153 
	C180.551590,375.977081 179.986633,375.089478 180.084732,373.240265 
	C180.761017,373.665070 181.403091,374.462769 182.107910,375.569153 
z"/>
<path fill="#E8A466" opacity="1.000000" stroke="none" 
	d="
M197.184433,282.308655 
	C198.299286,282.118805 200.017303,281.650024 198.872375,284.157043 
	C198.230179,283.835876 197.712479,283.223389 197.184433,282.308655 
z"/>
<path fill="#D28C52" opacity="1.000000" stroke="none" 
	d="
M205.871124,393.668274 
	C205.197052,393.756195 204.304916,393.589203 203.237900,393.117432 
	C203.926361,393.012909 204.789703,393.213165 205.871124,393.668274 
z"/>
<path fill="#E8A466" opacity="1.000000" stroke="none" 
	d="
M283.957642,187.553482 
	C283.203857,187.972900 282.239410,188.139694 281.261658,187.060425 
	C281.984589,186.918869 282.866943,187.102402 283.957642,187.553482 
z"/>
<path fill="#313A3E" opacity="1.000000" stroke="none" 
	d="
M210.751587,242.145355 
	C210.874817,242.563431 210.749390,243.158524 210.346893,243.898865 
	C210.214188,243.470200 210.358566,242.896286 210.751587,242.145355 
z"/>
<path fill="#D28C52" opacity="1.000000" stroke="none" 
	d="
M281.337585,304.720123 
	C280.650665,304.756897 280.192078,304.239136 280.119812,303.062927 
	C280.520355,303.254303 280.909393,303.813599 281.337585,304.720123 
z"/>
<path fill="#E8A466" opacity="1.000000" stroke="none" 
	d="
M305.699341,303.377625 
	C305.323303,302.647308 305.719788,302.239441 306.774597,302.076843 
	C306.728149,302.488556 306.353516,302.906525 305.699341,303.377625 
z"/>
<path fill="#E8A466" opacity="1.000000" stroke="none" 
	d="
M197.581879,222.004410 
	C197.690521,222.435837 197.541183,223.039337 197.101135,223.789795 
	C196.981567,223.349976 197.152740,222.763245 197.581879,222.004410 
z"/>
<path fill="#000000" opacity="1.000000" stroke="none" 
	d="
M234.945511,295.060059 
	C234.477692,294.927795 234.039246,294.762207 233.600800,294.596619 
	C233.949738,293.941528 234.356796,294.150085 234.902985,294.737854 
	C235.031387,294.958069 234.974869,295.026703 234.945511,295.060059 
z"/>
<path fill="#E8A466" opacity="1.000000" stroke="none" 
	d="
M307.303558,302.027710 
	C307.239685,301.819824 307.434875,301.530975 307.882446,301.151886 
	C307.944122,301.356659 307.753357,301.651703 307.303558,302.027710 
z"/>
<path fill="#E8A466" opacity="1.000000" stroke="none" 
	d="
M313.103271,208.633759 
	C312.879425,208.708725 312.574646,208.519638 312.195007,208.062195 
	C312.420898,207.985779 312.721619,208.177734 313.103271,208.633759 
z"/>
<path fill="#D28C52" opacity="1.000000" stroke="none" 
	d="
M175.909393,392.367798 
	C176.139648,392.280792 176.439606,392.459167 176.830597,392.891632 
	C176.607468,392.974884 176.293274,392.804047 175.909393,392.367798 
z"/>
<path fill="#D28C52" opacity="1.000000" stroke="none" 
	d="
M174.932480,391.336090 
	C175.154755,391.260376 175.447418,391.451477 175.820648,391.900146 
	C175.601761,391.972809 175.302307,391.787872 174.932480,391.336090 
z"/>
<path fill="#D28C52" opacity="1.000000" stroke="none" 
	d="
M173.937057,390.345276 
	C174.158829,390.264954 174.454010,390.448517 174.841156,390.884003 
	C174.625565,390.960327 174.318024,390.784760 173.937057,390.345276 
z"/>
<path fill="#D28C52" opacity="1.000000" stroke="none" 
	d="
M172.972961,389.304840 
	C173.188599,389.237457 173.470886,389.434875 173.836456,389.883850 
	C173.626358,389.946869 173.332993,389.758270 172.972961,389.304840 
z"/>
<path fill="#D28C52" opacity="1.000000" stroke="none" 
	d="
M176.387329,322.079926 
	C176.267761,321.866516 176.403458,321.560211 176.757309,321.118225 
	C176.864502,321.317413 176.753555,321.652191 176.387329,322.079926 
z"/>
<path fill="#D28C52" opacity="1.000000" stroke="none" 
	d="
M172.056854,388.251221 
	C172.244278,388.205353 172.512115,388.407196 172.869507,388.849365 
	C172.685135,388.892792 172.411194,388.695892 172.056854,388.251221 
z"/>
<path fill="#E8A466" opacity="1.000000" stroke="none" 
	d="
M301.592102,284.862000 
	C301.670898,285.096863 301.476990,285.418915 301.005310,285.827606 
	C300.924835,285.592560 301.122101,285.270874 301.592102,284.862000 
z"/>
<path fill="#E8A466" opacity="1.000000" stroke="none" 
	d="
M299.701508,286.944824 
	C299.772491,287.132629 299.599457,287.439148 299.184265,287.864258 
	C299.113922,287.676392 299.285675,287.369965 299.701508,286.944824 
z"/>
<path fill="#E8A466" opacity="1.000000" stroke="none" 
	d="
M221.071259,288.645569 
	C220.860947,288.699951 220.561447,288.494751 220.186615,288.020569 
	C220.401550,287.963043 220.691803,288.174500 221.071259,288.645569 
z"/>
<path fill="#D28C52" opacity="1.000000" stroke="none" 
	d="
M173.673828,297.884216 
	C173.754181,298.082062 173.582977,298.402130 173.161575,298.844482 
	C173.081665,298.646637 173.251953,298.326569 173.673828,297.884216 
z"/>
<path fill="#D28C52" opacity="1.000000" stroke="none" 
	d="
M198.936005,289.728577 
	C198.729218,289.774078 198.476425,289.561249 198.153259,289.104401 
	C198.351913,289.063690 198.620941,289.266968 198.936005,289.728577 
z"/>
<path fill="#D28C52" opacity="1.000000" stroke="none" 
	d="
M175.671921,295.962830 
	C175.725845,296.182465 175.511017,296.476746 175.026794,296.850830 
	C174.972672,296.632904 175.187912,296.335205 175.671921,295.962830 
z"/>
<path fill="#3E9397" opacity="1.000000" stroke="none" 
	d="
M245.762314,172.253174 
	C239.323669,163.624252 233.102295,155.278900 226.238998,146.072479 
	C232.228363,146.072479 237.412628,146.061172 242.596771,146.081741 
	C243.675095,146.086014 244.529831,146.531723 244.806488,147.682159 
	C247.310577,158.095245 249.809143,168.509674 252.576065,180.034714 
	C249.183304,177.428223 247.775406,174.811890 245.762314,172.253174 
z"/>
<path fill="#7CCAD1" opacity="1.000000" stroke="none" 
	d="
M251.688873,132.493530 
	C255.712753,132.396820 259.529175,132.296204 263.346130,132.263458 
	C267.403046,132.228653 271.482117,137.251022 270.646545,141.118454 
	C270.407227,142.226013 269.607544,142.322723 268.817047,142.325607 
	C262.509338,142.348663 256.199493,142.232742 249.894791,142.369034 
	C247.859360,142.413040 247.994675,140.995697 248.310120,140.148636 
	C249.147995,137.898697 248.969620,135.293945 250.913742,133.079681 
	C251.186752,132.815262 251.481644,132.519455 251.688873,132.493530 
z"/>
<path fill="#51C2C9" opacity="1.000000" stroke="none" 
	d="
M286.579926,142.288223 
	C283.979980,142.294205 281.815247,142.331421 279.651733,142.295654 
	C274.675903,142.213440 272.413422,140.024887 272.227722,135.196075 
	C272.166626,133.607315 272.767395,132.666962 274.479980,132.625549 
	C278.449432,132.529587 282.484650,131.905121 285.404846,135.772720 
	C286.990692,137.873093 288.992889,139.659088 290.945618,141.733810 
	C289.910797,142.763779 288.367798,142.098206 286.579926,142.288223 
z"/>
<path fill="#3E9397" opacity="1.000000" stroke="none" 
	d="
M231.535828,136.353729 
	C234.977600,134.985870 237.719040,132.031769 241.787186,132.832367 
	C243.535568,133.176422 246.361526,132.018112 245.924316,135.415222 
	C245.585739,138.046051 245.977219,141.624588 242.143524,142.041229 
	C238.523132,142.434692 234.691788,142.727005 231.198013,141.955368 
	C227.294342,141.093231 230.782471,138.874634 231.204300,136.941193 
	C231.320587,136.636536 231.405518,136.383179 231.535828,136.353729 
z"/>
<path fill="#3E9397" opacity="1.000000" stroke="none" 
	d="
M251.741547,132.395828 
	C251.824585,132.669785 251.683258,132.789291 251.329437,132.820679 
	C251.193649,132.548080 251.327072,132.384354 251.741547,132.395828 
z"/>
<path fill="#FAF5F6" opacity="1.000000" stroke="none" 
	d="
M263.650940,231.986084 
	C264.446106,232.004791 264.886261,232.035248 265.650635,232.134247 
	C267.825470,233.658051 269.385986,232.332581 271.077179,231.746292 
	C273.620850,230.864471 276.391083,229.972748 278.659149,232.048203 
	C281.101868,234.283478 281.422516,237.210236 280.124268,240.655869 
	C275.709595,245.974640 274.463135,246.095215 269.408234,242.078918 
	C265.115570,238.668213 251.132523,239.499664 246.232986,243.211121 
	C242.001495,246.416504 237.652222,249.316772 231.764481,247.023514 
	C226.551346,244.992996 223.681625,236.475754 226.791763,231.758926 
	C231.223190,225.038223 237.329391,220.489212 244.775131,217.729416 
	C247.781494,216.615082 249.605362,218.014618 250.025726,221.595490 
	C249.437042,224.051849 247.642456,224.745956 245.851944,225.006439 
	C240.742493,225.749710 237.822662,229.478210 234.684662,232.896866 
	C233.037292,234.691589 232.621460,237.022141 234.557434,238.653305 
	C236.314224,240.133469 238.344620,238.664886 239.247147,237.203903 
	C242.834915,231.395935 247.653854,230.914520 253.499451,233.115952 
	C256.857971,234.380753 259.960510,231.832245 263.650940,231.986084 
z"/>
<path fill="#E1D9DA" opacity="1.000000" stroke="none" 
	d="
M263.841187,231.633362 
	C259.563599,234.725861 255.043457,235.809265 249.926727,233.545181 
	C246.740936,232.135513 243.980118,232.819855 241.805511,236.136566 
	C239.985031,238.913162 237.675583,242.447952 233.509338,239.796341 
	C230.760544,238.046890 231.996323,234.223770 235.000061,230.329971 
	C238.754395,225.463150 244.135345,224.119522 249.733398,222.121353 
	C253.317703,226.968231 257.720734,230.263535 263.841187,231.633362 
z"/>
<path fill="#E1D9DA" opacity="1.000000" stroke="none" 
	d="
M280.478821,240.869232 
	C279.341583,240.510742 279.390350,239.841537 279.516022,238.942978 
	C280.348328,232.992050 278.095673,231.145050 272.408173,232.651154 
	C270.434448,233.173813 268.316559,235.323959 266.067932,232.545456 
	C272.222412,231.420578 273.566864,226.875290 271.639862,218.821518 
	C270.656860,214.712952 272.612366,216.232910 274.610229,216.084610 
	C276.229034,220.287460 280.428650,217.410385 282.704834,219.680862 
	C283.036591,224.838715 279.354980,229.406189 281.274384,234.260178 
	C282.266113,236.768234 281.739197,238.609451 280.478821,240.869232 
z"/>
<path fill="#FAF5F6" opacity="1.000000" stroke="none" 
	d="
M282.932983,219.591370 
	C281.814423,219.513367 280.927490,219.034668 279.650055,219.818024 
	C276.378540,221.824265 275.139130,220.148163 275.016449,216.540039 
	C275.455231,216.121780 275.887787,216.071991 276.641296,215.956207 
	C278.448853,216.037231 279.936310,216.043686 281.739807,215.868744 
	C283.646393,216.593536 282.793701,218.052368 282.932983,219.591370 
z"/>
<path fill="#E1D9DA" opacity="1.000000" stroke="none" 
	d="
M281.891968,215.480164 
	C280.710968,217.472107 279.096130,217.169083 277.193604,216.174545 
	C278.318329,214.157211 280.115997,215.238373 281.891968,215.480164 
z"/>
<path fill="#E8A466" opacity="1.000000" stroke="none" 
	d="
M161.395065,362.966553 
	C159.061172,359.375763 162.260788,355.365692 160.051086,351.401245 
	C160.338394,349.230072 160.736710,347.453308 160.995377,345.656433 
	C161.184738,344.341064 161.057159,342.686127 162.773331,342.567810 
	C164.342865,342.459595 164.300278,344.236206 164.489136,345.201019 
	C165.455399,350.137482 165.136993,355.140503 164.711365,360.105743 
	C164.584732,361.582977 163.697876,362.969940 161.395065,362.966553 
z"/>
<path fill="#E1D9DA" opacity="1.000000" stroke="none" 
	d="
M321.240906,243.779541 
	C323.046753,243.041092 323.592010,243.900192 323.947205,245.475952 
	C325.277893,251.378784 325.851471,257.198547 322.915039,263.191101 
	C318.135223,260.232544 319.630676,255.174225 319.474762,250.723297 
	C319.398590,248.548874 320.552490,246.331345 321.240906,243.779541 
z"/>
<path fill="#BDDAD4" opacity="1.000000" stroke="none" 
	d="
M239.689758,234.574905 
	C239.775330,235.133667 239.723099,235.483185 239.535797,235.730362 
	C238.436905,237.180283 236.663727,239.181992 235.315002,238.105988 
	C233.751831,236.858902 234.801727,234.620346 236.875854,233.232117 
	C237.942642,233.565308 238.824371,233.731491 239.689758,234.574905 
z"/>
<path fill="#E8A466" opacity="1.000000" stroke="none" 
	d="
M240.008209,234.557831 
	C238.858490,234.839859 237.676117,235.225800 237.212982,233.453033 
	C238.198822,232.732269 239.118668,231.568298 240.300461,232.542191 
	C240.893753,233.031128 240.458176,233.723877 240.008209,234.557831 
z"/>
</svg>